<svg xmlns="http://www.w3.org/2000/svg" width="1024" height="512" viewBox="0 0 1024 512">
  <rect width="1024" height="512" fill="#fbfaf8"/>
  <text x="28" y="63" font-family="Arial, Helvetica, sans-serif" font-size="30" font-weight="700" fill="#1f2933">MaxFrame Image Embedding Pipeline</text>
  <defs>
    <filter id="shadow" x="-20%" y="-20%" width="140%" height="140%"><feDropShadow dx="0" dy="8" stdDeviation="10" flood-color="#0f172a" flood-opacity=".08"/></filter>
    <marker id="arrow" markerWidth="12" markerHeight="8" refX="10" refY="4" orient="auto"><path d="M0,0 L12,4 L0,8 Z" fill="#111827"/></marker>
  </defs>
  <g font-family="Arial, Helvetica, sans-serif" text-anchor="middle">
    <g transform="translate(106 226)" filter="url(#shadow)">
      <circle r="82" fill="#effdfa" stroke="#38a89d" stroke-width="2"/>
      <rect x="-40" y="-26" width="80" height="64" rx="8" fill="#58c4b8" stroke="#247f76" stroke-width="3"/>
      <path d="M-24 -26 l10 -18 h28 l10 18" fill="none" stroke="#247f76" stroke-width="6"/>
      <path d="M-28 24 l20 -25 17 17 15 -20 25 28z" fill="#158f83"/>
      <circle cx="-18" cy="-4" r="6" fill="#f3b33d"/>
      <text y="126" font-size="22" font-weight="700" fill="#1d2733">OSS Image Source</text>
    </g>
    <g transform="translate(365 226)" filter="url(#shadow)">
      <path d="M0 -94 L74 -51 L74 51 L0 94 L-74 51 L-74 -51 Z" fill="#f6fbff" stroke="#2d7abf" stroke-width="2"/>
      <rect x="-44" y="-42" width="36" height="36" fill="#d9ecff" stroke="#2d7abf" stroke-width="5"/>
      <rect x="8" y="-42" width="36" height="36" fill="#d9ecff" stroke="#2d7abf" stroke-width="5"/>
      <rect x="-44" y="12" width="36" height="36" fill="#d9ecff" stroke="#2d7abf" stroke-width="5"/>
      <path d="M9 47 h35 v-35" fill="none" stroke="#2d7abf" stroke-width="4" stroke-dasharray="7 6"/>
      <text y="126" font-size="22" font-weight="700" fill="#1d2733">MaxFrame Resampling</text>
    </g>
    <g transform="translate(628 226)" filter="url(#shadow)">
      <circle r="82" fill="#f4fbf0" stroke="#6ab45f" stroke-width="2"/>
      <g stroke="#4d9c44" stroke-width="4" fill="#69b85e">
        <line x1="-36" y1="-10" x2="-6" y2="-35"/><line x1="-6" y1="-35" x2="34" y2="-14"/><line x1="-36" y1="-10" x2="-10" y2="26"/><line x1="-10" y1="26" x2="34" y2="-14"/><line x1="-6" y1="-35" x2="-10" y2="26"/>
        <circle cx="-36" cy="-10" r="8"/><circle cx="-6" cy="-35" r="8"/><circle cx="34" cy="-14" r="8"/><circle cx="-10" cy="26" r="8"/>
      </g>
      <rect x="-36" y="36" width="72" height="36" rx="7" fill="#fff" stroke="#6ab45f" stroke-width="2"/>
      <text y="60" font-size="13" fill="#287c28">Embedding</text>
      <text y="126" font-size="22" font-weight="700" fill="#1d2733">Bailian Embedding</text>
    </g>
    <g transform="translate(907 226)" filter="url(#shadow)">
      <path d="M0 -82 L72 -41 L72 41 L0 82 L-72 41 L-72 -41 Z" fill="#fffaf0" stroke="#dda23a" stroke-width="2"/>
      <path d="M-31 -38 h58 l22 22 v74 h-80z" fill="#fff" stroke="#d99a28" stroke-width="4"/>
      <path d="M27 -38 v22 h22" fill="none" stroke="#d99a28" stroke-width="4"/>
      <g stroke="#d99a28" stroke-width="2"><line x1="-20" y1="-1" x2="38" y2="-1"/><line x1="-20" y1="18" x2="38" y2="18"/><line x1="-20" y1="37" x2="38" y2="37"/><line x1="-1" y1="-15" x2="-1" y2="51"/><line x1="18" y1="-15" x2="18" y2="51"/></g>
      <text y="126" font-size="22" font-weight="700" fill="#1d2733">ODPS Vector Table</text>
    </g>
    <path d="M188 226 C225 226 243 226 278 226" fill="none" stroke="#111827" stroke-width="3" marker-end="url(#arrow)"/>
    <path d="M447 226 C482 226 504 226 540 226" fill="none" stroke="#111827" stroke-width="3" marker-end="url(#arrow)"/>
    <path d="M710 226 C750 226 784 226 827 226" fill="none" stroke="#111827" stroke-width="3" marker-end="url(#arrow)"/>
    <text x="496" y="213" font-size="16" fill="#111827">standardized images</text>
    <text x="767" y="213" font-size="16" fill="#111827">vectors + metadata</text>
  </g>
</svg>
